Coordinates
version=1
nRows=14
nColumns=40
inDegrees=yes

Units are S.I. units (second, meters, Newtons, ...)
If the header above contains a line with 'inDegrees', this indicates whether rotational values are in degrees (yes) or radians (no).

endheader
time	pelvis_tilt	pelvis_list	pelvis_rotation	pelvis_tx	pelvis_ty	pelvis_tz	hip_flexion_r	hip_adduction_r	hip_rotation_r	knee_angle_r	knee_angle_r_beta	ankle_angle_r	subtalar_angle_r	mtp_angle_r	hip_flexion_l	hip_adduction_l	hip_rotation_l	knee_angle_l	knee_angle_l_beta	ankle_angle_l	subtalar_angle_l	mtp_angle_l	lumbar_extension	lumbar_bending	lumbar_rotation	arm_flex_r	arm_add_r	arm_rot_r	elbow_flex_r	pro_sup_r	wrist_flex_r	wrist_dev_r	arm_flex_l	arm_add_l	arm_rot_l	elbow_flex_l	pro_sup_l	wrist_flex_l	wrist_dev_l
      2.65500000	     -4.86294060	     -5.33020290	      0.06412051	      0.14041624	      0.42439173	     -1.21373373	     94.84005586	    -44.73182039	     14.15834242	    125.99542583	      2.19903502	     38.44388976	      5.70447840	      0.00000000	    109.10076785	    -42.05502138	     31.06836162	    126.04323251	      2.19986941	     38.59780960	     15.43543110	      0.00000000	    -38.21830806	      4.16366416	      1.33730121	     44.99991909	    -14.99999999	     44.99991909	     75.00017585	     45.00000026	      0.00000000	      0.00000000	     44.99991909	    -14.99999999	     44.99991909	     75.00017585	     45.00000026	      0.00000000	      0.00000000
      2.66000000	     -5.13623940	     -5.22885907	      0.05138743	      0.13996692	      0.42587508	     -1.21354143	     94.99143475	    -44.64435103	     14.03872153	    125.76587427	      2.19502859	     38.33100106	      5.40453482	      0.00000000	    108.98631376	    -42.09049659	     30.62347937	    125.77846302	      2.19524831	     38.53321363	     15.41937517	      0.00000000	    -37.96377517	      4.06547951	      1.38174445	     44.99991916	    -14.99999999	     44.99991916	     75.00017585	     45.00000026	      0.00000000	      0.00000000	     44.99991916	    -14.99999999	     44.99991916	     75.00017585	     45.00000026	      0.00000000	      0.00000000
      2.66500000	     -5.44825636	     -5.27024538	      0.02798538	      0.13960781	      0.42725584	     -1.21345074	     94.99529882	    -44.57077515	     13.71633794	    125.53821351	      2.19105516	     38.28873630	      5.47421077	      0.00000000	    109.10014423	    -42.08444952	     30.42224402	    125.53198906	      2.19094653	     38.44556933	     15.32132674	      0.00000000	    -37.62537723	      4.08263154	      1.38848673	     44.99991923	    -14.99999999	     44.99991923	     75.00017585	     45.00000026	      0.00000000	      0.00000000	     44.99991923	    -14.99999999	     44.99991923	     75.00017585	     45.00000026	      0.00000000	      0.00000000
      2.67000000	     -5.75073510	     -5.06573225	     -0.00413425	      0.13911383	      0.42893038	     -1.21305095	     95.28514941	    -44.42798129	     13.71325436	    125.32252771	      2.18729074	     38.13674579	      5.01269790	      0.00000000	    108.86122716	    -42.20011157	     29.77871277	    125.18040591	      2.18481024	     38.43895800	     15.35285877	      0.00000000	    -37.32468547	      3.91094303	      1.41653117	     44.99991930	    -14.99999999	     44.99991930	     75.00017585	     45.00000026	      0.00000000	      0.00000000	     44.99991930	    -14.99999999	     44.99991930	     75.00017585	     45.00000026	      0.00000000	      0.00000000
      2.67500000	     -6.04763816	     -5.01292959	     -0.03108323	      0.13868971	      0.43058338	     -1.21296803	     95.35072741	    -44.33853918	     13.50907357	    125.02825464	      2.18215470	     38.01326561	      4.96361960	      0.00000000	    108.80500620	    -42.22685959	     29.39703476	    124.93100388	      2.18045736	     38.33267447	     15.23796501	      0.00000000	    -37.01224232	      3.85196671	      1.42659853	     44.99991936	    -14.99999999	     44.99991936	     75.00017585	     45.00000026	      0.00000000	      0.00000000	     44.99991936	    -14.99999999	     44.99991936	     75.00017585	     45.00000026	      0.00000000	      0.00000000
      2.68000000	     -6.37733523	     -5.22006674	     -0.05598165	      0.13835114	      0.43225732	     -1.21298113	     95.10827310	    -44.28793184	     12.85680604	    124.76137988	      2.17749686	     37.95924377	      5.12484498	      0.00000000	    109.08090079	    -42.18793449	     29.39275536	    124.64273606	      2.17542613	     38.19807286	     15.02278283	      0.00000000	    -36.65276145	      4.03506631	      1.45272496	     44.99991943	    -14.99999999	     44.99991943	     75.00017585	     45.00000026	      0.00000000	      0.00000000	     44.99991943	    -14.99999999	     44.99991943	     75.00017585	     45.00000026	      0.00000000	      0.00000000
      2.68500000	     -6.67914398	     -5.32767698	     -0.05367554	      0.13793916	      0.43435227	     -1.21299813	     94.87429949	    -44.24249463	     12.26943861	    124.41803135	      2.17150430	     37.83023371	      4.89934323	      0.00000000	    109.14833397	    -42.18304199	     29.12461382	    124.29116169	      2.16929000	     38.05475699	     14.87509559	      0.00000000	    -36.35359940	      4.19305270	      1.48446167	     44.99991951	    -14.99999999	     44.99991951	     75.00017585	     45.00000026	      0.00000000	      0.00000000	     44.99991951	    -14.99999999	     44.99991951	     75.00017585	     45.00000026	      0.00000000	      0.00000000
      2.69000000	     -6.94292353	     -5.34342508	     -0.06689290	      0.13739824	      0.43637792	     -1.21301082	     94.75155781	    -44.14538380	     11.88859786	    124.04379090	      2.16497257	     37.72730252	      4.70002505	      0.00000000	    109.06177495	    -42.13756176	     28.82953710	    124.01613786	      2.16448993	     37.98092283	     14.82067563	      0.00000000	    -36.10781162	      4.18210400	      1.54803418	     44.99991958	    -14.99999999	     44.99991958	     75.00017585	     45.00000026	      0.00000000	      0.00000000	     44.99991958	    -14.99999999	     44.99991958	     75.00017585	     45.00000026	      0.00000000	      0.00000000
      2.69500000	     -7.23454711	     -5.36748735	     -0.08638002	      0.13698194	      0.43847157	     -1.21291485	     94.63719911	    -44.05786833	     11.47765919	    123.71301225	      2.15919939	     37.60650133	      4.56626357	      0.00000000	    109.02941088	    -42.16423525	     28.49700795	    123.68335433	      2.15868176	     37.87451472	     14.72974836	      0.00000000	    -35.80068850	      4.20884485	      1.59173965	     44.99991965	    -14.99999999	     44.99991965	     75.00017585	     45.00000026	      0.00000000	      0.00000000	     44.99991965	    -14.99999999	     44.99991965	     75.00017585	     45.00000026	      0.00000000	      0.00000000
      2.70000000	     -7.67591346	     -5.89078372	      0.04326973	      0.13665185	      0.44023301	     -1.21364822	     94.05569358	    -44.22537788	     10.27093085	    123.29347341	      2.15187706	     37.59015626	      4.56561524	      0.00000000	    109.71006482	    -41.77271309	     28.85053534	    123.41961965	      2.15407872	     37.62786221	     14.41906780	      0.00000000	    -35.29885924	      4.89303766	      1.70639763	     44.99991989	    -14.99999999	     44.99991989	     75.00017585	     45.00000026	      0.00000000	      0.00000000	     44.99991989	    -14.99999999	     44.99991989	     75.00017585	     45.00000026	      0.00000000	      0.00000000
      2.70500000	     -7.88883310	     -6.06334338	      0.01853239	      0.13627052	      0.44288967	     -1.21366219	     93.54466700	    -44.14033246	      9.51245419	    122.87675949	      2.14460403	     37.48094399	      4.44489729	      0.00000000	    109.67315353	    -41.78905601	     28.68557161	    123.05000219	      2.14762768	     37.45903960	     14.30666985	      0.00000000	    -35.10361594	      5.05384848	      1.75015011	     44.99992011	    -14.99999999	     44.99992011	     75.00017585	     45.00000026	      0.00000000	      0.00000000	     44.99992011	    -14.99999999	     44.99992011	     75.00017585	     45.00000026	      0.00000000	      0.00000000
      2.71000000	     -8.16691075	     -6.29411375	      0.05046141	      0.13583982	      0.44535281	     -1.21387981	     93.07676147	    -44.12427122	      8.69603157	    122.44221049	      2.13701972	     37.33912843	      4.26437694	      0.00000000	    109.77324352	    -41.67659274	     28.59252105	    122.68859473	      2.14131993	     37.31035348	     14.21154093	      0.00000000	    -34.80971947	      5.35030065	      1.83546967	     44.99992025	    -14.99999999	     44.99992025	     75.00017585	     45.00000026	      0.00000000	      0.00000000	     44.99992025	    -14.99999999	     44.99992025	     75.00017585	     45.00000026	      0.00000000	      0.00000000
      2.71500000	     -8.45742531	     -6.47202313	      0.13394319	      0.13552233	      0.44791562	     -1.21410711	     92.65960838	    -44.18828075	      7.93874778	    122.02009217	      2.12965236	     37.29418298	      4.21592897	      0.00000000	    109.77696517	    -41.54472332	     28.35964122	    122.31125447	      2.13473410	     37.16029604	     14.06949853	      0.00000000	    -34.47722455	      5.60952853	      1.84405039	     44.99992040	    -14.99999999	     44.99992040	     75.00017585	     45.00000026	      0.00000000	      0.00000000	     44.99992040	    -14.99999999	     44.99992040	     75.00017585	     45.00000026	      0.00000000	      0.00000000
      2.72000000	     -8.80738739	     -6.50512043	      0.07377214	      0.13508073	      0.45031003	     -1.21392123	     92.55149721	    -44.01769716	      7.48457054	    121.62974884	      2.12283959	     37.07509108	      3.94985901	      0.00000000	    109.76511269	    -41.59502609	     28.02445720	    121.90925635	      2.12771791	     36.99063979	     13.94628697	      0.00000000	    -34.08263638	      5.63482264	      1.91168579	     44.99992054	    -14.99999999	     44.99992054	     75.00017585	     45.00000026	      0.00000000	      0.00000000	     44.99992054	    -14.99999999	     44.99992054	     75.00017585	     45.00000026	      0.00000000	      0.00000000
